<svg width="58" height="55" viewBox="0 0 58 55" fill="none" xmlns="http://www.w3.org/2000/svg">
<path d="M56.5 7.92529H1.5C0.671573 7.92529 0 8.59687 0 9.42529C0 10.2537 0.671575 10.9253 1.5 10.9253H56.5C57.3284 10.9253 58 10.2537 58 9.42529C58 8.59687 57.3284 7.92529 56.5 7.92529Z" fill="#131318"/>
<path d="M56.5 22.7593H1.5C0.671573 22.7593 0 23.4309 0 24.2593C0 25.0877 0.671575 25.7593 1.5 25.7593H56.5C57.3284 25.7593 58 25.0877 58 24.2593C58 23.4309 57.3284 22.7593 56.5 22.7593Z" fill="#131318"/>
<path d="M56.5 37.8118H1.5C0.671573 37.8118 0 38.4833 0 39.3118C0 40.1402 0.671575 40.8118 1.5 40.8118H56.5C57.3284 40.8118 58 40.1402 58 39.3118C58 38.4833 57.3284 37.8118 56.5 37.8118Z" fill="#131318"/>
</svg>
