<svg width="58" height="55" viewBox="0 0 58 55" fill="none" xmlns="http://www.w3.org/2000/svg">
<path d="M45.1093 6.89067L7.90286 44.0971C6.85194 45.1481 6.85194 46.8519 7.90286 47.9029C8.95378 48.9538 10.6577 48.9538 11.7086 47.9029L48.915 10.6964C49.966 9.64546 49.966 7.94158 48.915 6.89066C47.8641 5.83974 46.1603 5.83975 45.1093 6.89067Z" fill="#898989"/>
<path d="M45.1093 48.1093L7.90286 10.9029C6.85194 9.85194 6.85194 8.14806 7.90286 7.09714C8.95378 6.04622 10.6577 6.04623 11.7086 7.09714L48.915 44.3036C49.966 45.3545 49.966 47.0584 48.915 48.1093C47.8641 49.1603 46.1603 49.1603 45.1093 48.1093Z" fill="#898989"/>
</svg>
