<svg width="58" height="55" viewBox="0 0 58 55" fill="none" xmlns="http://www.w3.org/2000/svg">
<path d="M55.309 7.92529H2.69105C1.20482 7.92529 0 9.13011 0 10.6163C0 12.1026 1.20482 13.3074 2.69105 13.3074H55.309C56.7952 13.3074 58 12.1026 58 10.6163C58 9.13011 56.7952 7.92529 55.309 7.92529Z" fill="#898989"/>
<path d="M55.309 22.7593H2.69105C1.20482 22.7593 0 23.9641 0 25.4503C0 26.9365 1.20482 28.1414 2.69105 28.1414H55.309C56.7952 28.1414 58 26.9365 58 25.4503C58 23.9641 56.7952 22.7593 55.309 22.7593Z" fill="#898989"/>
<path d="M55.309 37.8118H2.69105C1.20482 37.8118 0 39.0166 0 40.5028C0 41.989 1.20482 43.1939 2.69105 43.1939H55.309C56.7952 43.1939 58 41.989 58 40.5028C58 39.0166 56.7952 37.8118 55.309 37.8118Z" fill="#898989"/>
</svg>
