<svg width="58" height="55" viewBox="0 0 58 55" fill="none" xmlns="http://www.w3.org/2000/svg">
<path d="M45.9515 6.04847L7.06066 44.9393C6.47487 45.5251 6.47487 46.4749 7.06066 47.0607C7.64645 47.6464 8.5962 47.6464 9.18198 47.0607L48.0729 8.16979C48.6586 7.584 48.6586 6.63425 48.0729 6.04847C47.4871 5.46268 46.5373 5.46268 45.9515 6.04847Z" fill="#131318"/>
<path d="M45.9515 48.9515L7.06066 10.0607C6.47487 9.47487 6.47487 8.52513 7.06066 7.93934C7.64645 7.35355 8.5962 7.35355 9.18198 7.93934L48.0729 46.8302C48.6586 47.416 48.6586 48.3657 48.0729 48.9515C47.4871 49.5373 46.5373 49.5373 45.9515 48.9515Z" fill="#131318"/>
</svg>
