<svg width="20" height="17" viewBox="0 0 20 17" fill="none" xmlns="http://www.w3.org/2000/svg">
<path d="M19.8879 2.38024C19.1421 2.71012 18.3548 2.9163 17.5262 3.04C18.3548 2.54518 19.0178 1.76171 19.3078 0.813304C18.5206 1.26689 17.6505 1.59677 16.6975 1.80295C15.9517 1.01948 14.8745 0.524658 13.7143 0.524658C11.4769 0.524658 9.6539 2.339 9.6539 4.5657C9.6539 4.89558 9.69533 5.18423 9.7782 5.47288C6.42212 5.30794 3.39751 3.69977 1.36729 1.22566C1.03583 1.84418 0.828661 2.50395 0.828661 3.24618C0.828661 4.64817 1.53302 5.88523 2.65171 6.62746C1.98879 6.58623 1.36729 6.42129 0.787228 6.13264V6.17387C0.787228 8.15316 2.19595 9.80257 4.06044 10.1737C3.72897 10.2562 3.35608 10.2974 2.98318 10.2974C2.73458 10.2974 2.44455 10.2562 2.19595 10.2149C2.73458 11.8231 4.22617 13.0189 6.00779 13.0189C4.59907 14.091 2.85888 14.7508 0.95296 14.7508C0.621495 14.7508 0.290031 14.7508 0 14.7096C1.82305 15.8641 3.93614 16.5239 6.25639 16.5239C13.7558 16.5239 17.8576 10.3386 17.8576 4.97805C17.8576 4.81311 17.8576 4.60694 17.8576 4.442C18.6449 3.90594 19.3492 3.20494 19.8879 2.38024Z" fill="#131318"/>
</svg>
