<svg width="25" height="25" viewBox="0 0 25 25" fill="none" xmlns="http://www.w3.org/2000/svg">
<path d="M12.1981 2.88679C15.4173 2.88679 15.7986 2.89879 17.0703 2.9565C17.8349 2.96582 18.5923 3.10555 19.3095 3.36963C19.8296 3.56924 20.3019 3.87503 20.696 4.2673C21.0902 4.65957 21.3974 5.12963 21.598 5.64723C21.8634 6.36098 22.0038 7.11472 22.0131 7.8757C22.0705 9.14135 22.0832 9.52076 22.0832 12.7246C22.0832 15.9285 22.0711 16.3079 22.0131 17.5735C22.0038 18.3345 21.8634 19.0882 21.598 19.802C21.3974 20.3196 21.0902 20.7896 20.696 21.1819C20.3019 21.5742 19.8296 21.88 19.3095 22.0796C18.5923 22.3437 17.8349 22.4834 17.0703 22.4927C15.7992 22.5499 15.4179 22.5624 12.1981 22.5624C8.97833 22.5624 8.5971 22.5504 7.32595 22.4927C6.56132 22.4834 5.80396 22.3437 5.08679 22.0796C4.5667 21.88 4.09438 21.5742 3.70023 21.1819C3.30608 20.7896 2.99882 20.3196 2.79825 19.802C2.5329 19.0882 2.3925 18.3345 2.38314 17.5735C2.32573 16.3079 2.3131 15.9285 2.3131 12.7246C2.3131 9.52076 2.32516 9.14135 2.38314 7.8757C2.3925 7.11472 2.5329 6.36098 2.79825 5.64723C2.99882 5.12963 3.30608 4.65957 3.70023 4.2673C4.09438 3.87503 4.5667 3.56924 5.08679 3.36963C5.80396 3.10555 6.56132 2.96582 7.32595 2.9565C8.59767 2.89936 8.9789 2.88679 12.1981 2.88679ZM12.1981 0.724609C8.92551 0.724609 8.51327 0.738323 7.22719 0.796606C6.22649 0.816415 5.23641 1.00498 4.29906 1.35429C3.49497 1.6558 2.76667 2.12829 2.16497 2.7388C1.55098 3.33784 1.07582 4.06308 0.772671 4.86384C0.421686 5.79671 0.232211 6.78206 0.212307 7.77799C0.154893 9.05678 0.141113 9.46705 0.141113 12.724C0.141113 15.981 0.154893 16.3913 0.213455 17.6712C0.23336 18.6672 0.422834 19.6525 0.77382 20.5854C1.07663 21.386 1.55139 22.1113 2.16497 22.7104C2.767 23.3211 3.49571 23.7936 4.30021 24.0949C5.23755 24.4442 6.22764 24.6328 7.22834 24.6526C8.51442 24.7098 8.92494 24.7246 12.1993 24.7246C15.4736 24.7246 15.8841 24.7109 17.1702 24.6526C18.1709 24.6328 19.161 24.4442 20.0983 24.0949C20.899 23.786 21.6261 23.3143 22.2331 22.7097C22.8402 22.1052 23.3137 21.3813 23.6236 20.5842C23.9746 19.6514 24.164 18.666 24.1839 17.6701C24.2414 16.3913 24.2551 15.981 24.2551 12.724C24.2551 9.46705 24.2414 9.05678 24.1828 7.77684C24.1629 6.78092 23.9734 5.79557 23.6224 4.8627C23.3196 4.06204 22.8449 3.33681 22.2313 2.73766C21.6293 2.12701 20.9005 1.65451 20.096 1.35315C19.1587 1.00384 18.1686 0.815272 17.1679 0.795463C15.883 0.738323 15.4707 0.724609 12.1981 0.724609Z" fill="#131318"/>
<path d="M12.196 6.5625C10.9714 6.5625 9.77431 6.92389 8.75611 7.60098C7.73791 8.27807 6.94433 9.24044 6.4757 10.3664C6.00708 11.4924 5.88446 12.7313 6.12337 13.9266C6.36227 15.1219 6.95196 16.2199 7.81787 17.0817C8.68377 17.9434 9.787 18.5303 10.988 18.7681C12.1891 19.0058 13.434 18.8838 14.5654 18.4174C15.6967 17.951 16.6637 17.1612 17.3441 16.1479C18.0244 15.1346 18.3875 13.9432 18.3875 12.7245C18.3875 11.0902 17.7352 9.5229 16.5741 8.36731C15.4129 7.21171 13.8381 6.5625 12.196 6.5625ZM12.196 16.7243C11.4011 16.7243 10.624 16.4897 9.96312 16.0502C9.3022 15.6107 8.78707 14.986 8.48288 14.2552C8.1787 13.5243 8.09911 12.7201 8.25418 11.9442C8.40925 11.1683 8.79203 10.4556 9.3541 9.8962C9.91616 9.33682 10.6323 8.95587 11.4119 8.80154C12.1915 8.6472 12.9996 8.72641 13.734 9.02915C14.4683 9.33189 15.096 9.84455 15.5376 10.5023C15.9793 11.1601 16.215 11.9334 16.215 12.7245C16.215 13.7853 15.7915 14.8027 15.0378 15.5528C14.2841 16.3029 13.2619 16.7243 12.196 16.7243Z" fill="#131318"/>
<path d="M18.633 7.75877C19.4321 7.75877 20.0798 7.11409 20.0798 6.31884C20.0798 5.52359 19.4321 4.87891 18.633 4.87891C17.8339 4.87891 17.1862 5.52359 17.1862 6.31884C17.1862 7.11409 17.8339 7.75877 18.633 7.75877Z" fill="#131318"/>
</svg>
