<svg width="24" height="24" viewBox="0 0 24 24" fill="none" xmlns="http://www.w3.org/2000/svg">
<path fill-rule="evenodd" clip-rule="evenodd" d="M11.7883 0.724609C5.39702 0.724609 0.255127 5.84194 0.255127 12.2027C0.255127 17.2722 3.57092 21.5765 8.13615 23.107C8.71281 23.2026 8.90503 22.8678 8.90503 22.5331C8.90503 22.2461 8.90503 21.5287 8.90503 20.5722C5.68535 21.2896 5.01258 19.0418 5.01258 19.0418C4.48397 17.7027 3.71509 17.3679 3.71509 17.3679C2.65788 16.6505 3.8112 16.6505 3.8112 16.6505C4.96452 16.7462 5.58924 17.8462 5.58924 17.8462C6.59839 19.6157 8.28032 19.0896 8.95309 18.8027C9.0492 18.0375 9.33753 17.5592 9.67391 17.2722C7.127 16.9853 4.43591 15.981 4.43591 11.581C4.43591 10.3375 4.86841 9.28538 5.63729 8.52017C5.54118 8.23322 5.10869 7.0854 5.7334 5.45934C5.7334 5.45934 6.6945 5.17238 8.90503 6.65497C9.81808 6.41585 10.8272 6.27237 11.7883 6.27237C12.7494 6.27237 13.7586 6.41585 14.6716 6.65497C16.8822 5.17238 17.8433 5.45934 17.8433 5.45934C18.468 7.03758 18.0835 8.18539 17.9394 8.52017C18.6602 9.3332 19.1408 10.3375 19.1408 11.581C19.1408 15.981 16.4497 16.9375 13.8547 17.2244C14.2872 17.5592 14.6236 18.2766 14.6236 19.3287C14.6236 20.8592 14.6236 22.1026 14.6236 22.4852C14.6236 22.7722 14.8158 23.1548 15.4405 23.0591C20.0057 21.5765 23.3215 17.2722 23.3215 12.2027C23.3215 5.84194 18.1797 0.724609 11.7883 0.724609Z" fill="#131318"/>
</svg>
